<svg width="20" height="20" viewBox="0 0 20 20" fill="none" xmlns="http://www.w3.org/2000/svg">
<path fill-rule="evenodd" clip-rule="evenodd" d="M20 0.833288C20 0.612286 19.9122 0.400335 19.7559 0.244062C19.5997 0.0877904 19.3877 -1.85382e-06 19.1667 -1.8345e-06L9.16724 -9.60319e-07C8.94623 -9.40998e-07 8.73428 0.0877913 8.57801 0.244063C8.42174 0.400336 8.33395 0.612287 8.33395 0.833289C8.33395 1.05429 8.42174 1.26624 8.57801 1.42251C8.73428 1.57879 8.94623 1.66658 9.16724 1.66658L17.1551 1.66658L0.244375 18.5757C0.0879056 18.7322 1.81506e-06 18.9444 1.83441e-06 19.1657C1.85375e-06 19.3869 0.0879057 19.5992 0.244375 19.7556C0.400845 19.9121 0.613064 20 0.834345 20C1.05563 20 1.26784 19.9121 1.42431 19.7556L18.3334 2.84485L18.3334 10.8328C18.3334 11.0538 18.4212 11.2657 18.5775 11.422C18.7338 11.5783 18.9457 11.6661 19.1667 11.6661C19.3877 11.6661 19.5997 11.5783 19.7559 11.422C19.9122 11.2657 20 11.0538 20 10.8328L20 0.833288Z" fill="black"/>
</svg>
