<svg width="50" height="50" viewBox="0 0 50 50" fill="none" xmlns="http://www.w3.org/2000/svg">
<path d="M19.3149 0C17.2355 0.00222662 15.242 0.819411 13.7717 2.27262C12.3014 3.7258 11.4744 5.69614 11.4723 7.75122V22.4325H8.12661C6.00673 22.436 3.97459 23.2693 2.47574 24.7509C0.976858 26.2325 0.133616 28.2412 0.130859 30.3363V49.1731H7.89565C10.0155 49.1696 12.0477 48.3363 13.5466 46.8547C15.0454 45.373 15.8887 43.3645 15.8914 41.2693V26.8013H42.1185C44.1736 26.7988 46.1437 25.9909 47.5969 24.5545C49.0499 23.1182 49.8672 21.1707 49.8694 19.1396V0H19.3149ZM11.4781 41.275C11.4764 42.2122 11.0997 43.1106 10.4292 43.7732C9.75869 44.436 8.84967 44.8087 7.90148 44.81H4.55581V30.3409C4.5575 29.4036 4.9338 28.505 5.60437 27.8423C6.27492 27.1796 7.18411 26.8068 8.13242 26.8059H11.4781V41.275ZM45.456 19.1453C45.4543 20.0184 45.1038 20.8554 44.4791 21.4727C43.8546 22.0901 43.0076 22.4374 42.1243 22.4383H15.8972V7.74779C15.8989 6.85109 16.2594 5.99146 16.9009 5.3574C17.5425 4.72334 18.4122 4.36659 19.3195 4.36538H45.456V19.1453Z" fill="#24272A"/>
</svg>
