<svg width="24" height="18" viewBox="0 0 24 18" fill="none" xmlns="http://www.w3.org/2000/svg">
<path d="M11.6505 5.15893C11.7672 5.14687 11.8839 5.14286 12.0005 5.14286C14.209 5.14286 16.0007 6.83437 16.0007 9C16.0007 11.1295 14.209 12.8571 12.0005 12.8571C9.75459 12.8571 8.00035 11.1295 8.00035 9C8.00035 8.8875 8.00452 8.775 8.01702 8.6625C8.40453 8.8433 8.85455 9 9.33374 9C10.8046 9 12.0005 7.84687 12.0005 6.42857C12.0005 5.96652 11.838 5.53259 11.6505 5.15893ZM20.0259 3.23839C21.976 4.98214 23.2802 7.03527 23.8969 8.5058C24.0344 8.82321 24.0344 9.17679 23.8969 9.4942C23.2802 10.9286 21.976 12.9817 20.0259 14.7616C18.0633 16.5214 15.3673 18 12.0005 18C8.63371 18 5.93776 16.5214 3.97601 14.7616C2.02592 12.9817 0.722535 10.9286 0.10255 9.4942C0.0348541 9.33761 0 9.16965 0 9C0 8.83035 0.0348541 8.66239 0.10255 8.5058C0.722535 7.03527 2.02592 4.98214 3.97601 3.23839C5.93776 1.48018 8.63371 0 12.0005 0C15.3673 0 18.0633 1.48018 20.0259 3.23839ZM12.0005 3.21429C8.68788 3.21429 6.00026 5.8058 6.00026 9C6.00026 12.1942 8.68788 14.7857 12.0005 14.7857C15.3132 14.7857 18.0008 12.1942 18.0008 9C18.0008 5.8058 15.3132 3.21429 12.0005 3.21429Z" fill="#24272A"/>
</svg>
