<svg width="28" height="33" viewBox="0 0 28 33" fill="none" xmlns="http://www.w3.org/2000/svg">
<path d="M16.0629 0C16.4869 0 16.813 0.3465 16.813 0.759V6.072C16.813 9.0915 19.2755 11.5665 22.2598 11.583C23.4991 11.583 24.4776 11.5995 25.2277 11.5995L25.5056 11.5983C26.0069 11.5945 26.6818 11.583 27.2662 11.583C27.6738 11.583 28 11.913 28 12.3255V25.5915C28 29.6835 24.7222 33 20.6779 33H7.69715C3.45719 33 0 29.5185 0 25.2285V7.4415C0 3.3495 3.29412 0 7.35469 0H16.0629ZM17.8078 21.285H8.93652C8.26791 21.285 7.71345 21.8295 7.71345 22.506C7.71345 23.1825 8.26791 23.7435 8.93652 23.7435H17.8078C18.4764 23.7435 19.0309 23.1825 19.0309 22.506C19.0309 21.8295 18.4764 21.285 17.8078 21.285ZM14.4485 13.035H8.93652C8.26791 13.035 7.71345 13.596 7.71345 14.2725C7.71345 14.949 8.26791 15.4935 8.93652 15.4935H14.4485C15.1171 15.4935 15.6715 14.949 15.6715 14.2725C15.6715 13.596 15.1171 13.035 14.4485 13.035ZM19.1894 1.4949C19.1894 0.78375 20.0423 0.43065 20.5299 0.9438C22.2927 2.7984 25.3732 6.04065 27.0953 7.85235C27.5714 8.3523 27.2225 9.18225 26.5359 9.1839C25.1954 9.18885 23.6152 9.1839 22.4786 9.17235C20.675 9.17235 19.1894 7.6692 19.1894 5.8443V1.4949Z" fill="#24272A"/>
</svg>
