<svg width="28" height="28" viewBox="0 0 28 28" fill="none" xmlns="http://www.w3.org/2000/svg">
<path d="M8.28796 16.0575C10.2619 16.0575 11.8439 17.6549 11.8439 19.6429V24.4155C11.8439 26.3894 10.2619 27.9994 8.28796 27.9994H3.55598C1.59599 27.9994 0 26.3894 0 24.4155V19.6429C0 17.6549 1.59599 16.0575 3.55598 16.0575H8.28796ZM24.444 16.0575C26.404 16.0575 28 17.6549 28 19.6429V24.4155C28 26.3894 26.404 27.9994 24.444 27.9994H19.712C17.7381 27.9994 16.1561 26.3894 16.1561 24.4155V19.6429C16.1561 17.6549 17.7381 16.0575 19.712 16.0575H24.444ZM8.28796 0C10.2619 0 11.8439 1.60999 11.8439 3.58538V8.35796C11.8439 10.3459 10.2619 11.9419 8.28796 11.9419H3.55598C1.59599 11.9419 0 10.3459 0 8.35796V3.58538C0 1.60999 1.59599 0 3.55598 0H8.28796ZM24.444 0C26.404 0 28 1.60999 28 3.58538V8.35796C28 10.3459 26.404 11.9419 24.444 11.9419H19.712C17.7381 11.9419 16.1561 10.3459 16.1561 8.35796V3.58538C16.1561 1.60999 17.7381 0 19.712 0H24.444Z" fill="#24272A"/>
</svg>
