<svg width="31" height="37" viewBox="0 0 31 37" fill="none" xmlns="http://www.w3.org/2000/svg">
<path d="M15.2837 0.0893555C20.6991 0.0893555 25.0565 4.43597 25.0565 9.80216V12.5622C28.096 13.5299 30.3105 16.3364 30.3105 19.6885V28.5749C30.3105 32.7248 26.9376 36.0894 22.7792 36.0894H7.84372C3.68353 36.0894 0.310547 32.7248 0.310547 28.5749V19.6885C0.310547 16.3364 2.52692 13.5299 5.56458 12.5622V9.80216C5.58251 4.43597 9.93996 0.0893555 15.2837 0.0893555ZM15.3016 20.5811C14.4409 20.5811 13.7415 21.2787 13.7415 22.1373V26.1082C13.7415 26.9847 14.4409 27.6823 15.3016 27.6823C16.1802 27.6823 16.8796 26.9847 16.8796 26.1082V22.1373C16.8796 21.2787 16.1802 20.5811 15.3016 20.5811ZM15.3195 3.21963C11.6793 3.21963 8.72059 6.15315 8.70266 9.76639V12.174H21.9184V9.80216C21.9184 6.17104 18.9597 3.21963 15.3195 3.21963Z" fill="black"/>
</svg>
