<svg width="30" height="24" viewBox="0 0 30 24" fill="none" xmlns="http://www.w3.org/2000/svg">
<path d="M15 0C18.1024 0 21.0439 1.07636 23.6049 3.06909C26.1659 5.04727 28.3463 7.94182 29.9122 11.5636C30.0293 11.84 30.0293 12.16 29.9122 12.4218C26.7805 19.6655 21.2049 24 15 24H14.9854C8.79512 24 3.21951 19.6655 0.0878049 12.4218C-0.0292683 12.16 -0.0292683 11.84 0.0878049 11.5636C3.21951 4.32 8.79512 0 14.9854 0H15ZM15 6.18182C11.7659 6.18182 9.14634 8.78545 9.14634 12C9.14634 15.2 11.7659 17.8036 15 17.8036C18.2195 17.8036 20.839 15.2 20.839 12C20.839 8.78545 18.2195 6.18182 15 6.18182ZM15.0018 8.36044C17.0066 8.36044 18.6457 9.98953 18.6457 11.9968C18.6457 13.9895 17.0066 15.6186 15.0018 15.6186C12.9822 15.6186 11.3432 13.9895 11.3432 11.9968C11.3432 11.7495 11.3725 11.5168 11.4164 11.2841H11.4896C13.114 11.2841 14.431 10.0041 14.4896 8.40407C14.6505 8.37498 14.8261 8.36044 15.0018 8.36044Z" fill="white"/>
</svg>
