<svg width="28" height="20" viewBox="0 0 28 20" fill="none" xmlns="http://www.w3.org/2000/svg">
<path d="M13.9351 13.1745C18.3021 13.1745 22.0309 13.8545 22.0309 16.5754C22.0309 19.2953 18.326 20 13.9351 20C9.56817 20 5.83939 19.32 5.83939 16.6002C5.83939 13.8793 9.54424 13.1745 13.9351 13.1745ZM20.9174 11.5361C22.5869 11.5057 24.3818 11.7309 25.045 11.8907C26.4501 12.162 27.3744 12.7159 27.7573 13.5208C28.0809 14.1816 28.0809 14.9483 27.7573 15.608C27.1715 16.8564 25.2832 17.2572 24.5493 17.3608C24.3977 17.3833 24.2758 17.2538 24.2917 17.1041C24.6667 13.6446 21.6843 12.0044 20.9128 11.6273C20.8798 11.6104 20.8729 11.5845 20.8763 11.5687C20.8786 11.5575 20.8923 11.5395 20.9174 11.5361ZM6.7691 11.5338L7.08349 11.5365C7.10856 11.5399 7.1211 11.5579 7.12338 11.5681C7.1268 11.585 7.11996 11.6097 7.08805 11.6277C6.3154 12.0049 3.33306 13.6451 3.70798 17.1034C3.72394 17.2543 3.60314 17.3826 3.45157 17.3612C2.71767 17.2577 0.829346 16.8569 0.24359 15.6084C-0.0811967 14.9476 -0.0811967 14.1821 0.24359 13.5213C0.626497 12.7163 1.54958 12.1625 2.95471 11.89C3.6191 11.7313 5.41283 11.5062 7.08349 11.5365L6.7691 11.5338ZM13.9351 0C16.9084 0 19.2924 2.35284 19.2924 5.29107C19.2924 8.22817 16.9084 10.5833 13.9351 10.5833C10.9619 10.5833 8.57785 8.22817 8.57785 5.29107C8.57785 2.35284 10.9619 0 13.9351 0ZM21.208 0.88237C24.0798 0.88237 26.335 3.55154 25.5669 6.52467C25.0484 8.52627 23.1715 9.85579 21.0803 9.80175C20.8706 9.79613 20.6644 9.77699 20.4649 9.74321C20.3202 9.71845 20.2473 9.55746 20.3293 9.43813C21.1271 8.2786 21.5818 6.88379 21.5818 5.38653C21.5818 3.82398 21.0849 2.36724 20.2222 1.17282C20.1949 1.13567 20.1743 1.07825 20.2017 1.03547C20.2245 1.00057 20.2667 0.982562 20.3065 0.973556C20.5971 0.915017 20.8957 0.88237 21.208 0.88237ZM6.79118 0.882257C7.10343 0.882257 7.40201 0.914904 7.69375 0.973443C7.73249 0.982449 7.7758 1.00159 7.79859 1.03536C7.8248 1.07814 7.80543 1.13555 7.77808 1.1727C6.9154 2.36713 6.41853 3.82386 6.41853 5.38642C6.41853 6.88368 6.87323 8.27849 7.67096 9.43802C7.75301 9.55735 7.68007 9.71834 7.53534 9.7431C7.33477 9.778 7.12964 9.79601 6.91996 9.80164C4.82878 9.85568 2.95186 8.52616 2.43334 6.52456C1.66411 3.55143 3.91938 0.882257 6.79118 0.882257Z" fill="#24272A"/>
</svg>
